<?xml version="1.0" encoding="utf-8"?>

<svg version="1.0" xmlns="http://www.w3.org/2000/svg" width="353px" height="353px" viewBox="0 0 353 353" preserveAspectRatio="xMidYMid meet">
 <g fill="#2c472c" fill-rule="evenodd">
  <path d="M173.40 334.25 L173.29 334.11 L173.23 333.87 L173.05 333.70 L173.05 333.52C173.05 333.42 172.98 333.35 172.91 333.35 C172.85 333.35 172.71 333.25 172.57 333.18 L172.36 333.01L172.36 333.01 L172.36 332.87C172.36 332.76 171.71 331.66 170.95 330.35 C170.19 329.04 169.12 326.90 168.57 325.56 C168.02 324.25 167.26 321.91 166.85 320.39 C166.47 318.87 165.92 316.11 165.64 314.22 C165.37 312.32 164.99 308.67 164.81 306.12 C164.61 303.53 164.26 297.98 164.02 293.78 C163.75 288.74 163.47 286.12 163.23 286.23 C163.02 286.30 161.57 287.88 159.99 289.74 C158.40 291.64 156.51 294.19 155.78 295.43 C155.02 296.67 154.44 297.81 154.44 297.95 L154.44 298.19L154.30 298.19 154.27 298.36 L154.20 298.53 154.09 298.74 L153.75 298.88 L152.71 301.81L151.68 304.74L151.68 304.74 L151.33 306.46L150.99 308.19L150.99 308.19 L150.99 308.43C150.99 308.56 150.92 309.12 150.82 309.67 C150.71 310.22 150.65 310.94 150.65 311.32 L150.65 311.98L150.65 311.98 L150.96 314.74C151.13 316.29 151.37 318.04 151.51 318.63 C151.61 319.22 151.78 319.98 151.85 320.32 L152.02 320.94L152.02 320.94 L152.02 321.04C152.02 321.11 152.37 322.87 152.85 324.94 C153.30 327.01 153.95 330.80 154.27 333.42 C154.61 336.04 154.82 338.25 154.71 338.31 C154.61 338.42 152.92 338.14 150.96 337.69 L147.37 336.87 146.89 334.94 C146.65 333.87 146.37 333.01 146.27 333.01 L146.16 333.01L146.16 333.01 L145.99 332.49L145.82 331.97L145.82 331.97 L145.82 331.80C145.82 331.70 145.82 331.52 145.82 331.45 L145.82 331.28L145.82 331.28 L145.82 331.11C145.82 331.01 145.72 330.94 145.65 330.94 L145.47 330.94L145.47 330.94 L144.10 327.15L142.72 323.35L142.72 323.35 L142.20 321.80L141.68 320.25L141.68 320.25 L141.48 319.98C141.37 319.87 141.13 319.08 140.92 318.25 C140.72 317.46 140.48 316.80 140.37 316.80 C140.30 316.80 139.17 317.77 137.86 318.94 C136.55 320.11 135.48 321.15 135.48 321.18 L135.48 321.29L135.48 321.29 L134.96 321.63L134.44 321.97L134.44 321.97 L134.27 321.97C134.17 321.97 134.10 322.04 134.10 322.15 L134.10 322.32L134.10 322.32 L133.06 323.01L132.03 323.70L132.03 324.04 L131.86 324.04C131.75 324.04 131.58 324.04 131.51 324.04 L131.34 324.04L131.34 324.04 L131.34 324.22C131.34 324.28 131.24 324.39 131.17 324.39 L131 324.39L131.17 324.56 131 324.59 L130.65 324.73 L130.65 324.80C130.65 324.84 129.58 325.56 128.31 326.39 C127.03 327.18 124.76 328.49 123.24 329.21 L120.48 330.59 117.21 329.77 C115.38 329.28 113.55 328.77 113.10 328.59 C112.31 328.32 112.45 328.15 115.17 326.04 C116.76 324.80 118.31 323.42 118.65 323.04 L119.28 322.32L119.28 322.32 L119.45 322.32C119.59 322.32 119.79 322.22 119.96 322.11 C120.14 322.01 120.34 321.77 120.48 321.60 C120.59 321.42 120.72 321.29 120.76 321.29 C120.79 321.29 121.48 320.56 122.27 319.73 L123.76 318.18L123.76 318.18 L123.86 318.18C123.93 318.18 125.07 317.01 126.41 315.63 C127.72 314.22 129.17 312.60 129.55 312.01 L130.31 310.94L130.31 310.94 L130.48 310.94C130.55 310.94 130.65 310.84 130.65 310.77 L130.65 310.60L130.65 310.60 L130.75 310.60C130.82 310.60 131.89 309.29 133.13 307.70 C134.37 306.15 135.79 304.19 136.27 303.39 L137.20 301.98L137.30 301.98 137.37 301.81 L137.41 301.64 137.55 301.39 L137.89 301.29 L139.10 299.05L140.30 296.81L140.30 296.81 L141.03 295.15C141.48 294.26 142.34 292.16 142.96 290.47 C143.61 288.78 144.06 287.33 143.96 287.26 C143.89 287.19 142.13 287.30 140.03 287.47 C137.96 287.67 135.27 288.16 134.06 288.57 C132.82 288.95 131.24 289.60 130.48 289.98 C129.72 290.36 128.38 291.16 127.55 291.74 C126.69 292.33 125.07 293.64 123.96 294.71 C122.83 295.78 121.10 297.71 120.14 299.05 C119.14 300.36 116.97 303.46 115.31 305.94 C113.62 308.39 111.66 311.15 110.93 312.08 C110.21 313.01 109.62 313.84 109.62 313.91 L109.62 314.05L109.62 314.05 L107.45 315.63C106.28 316.49 104.14 317.77 102.73 318.46 C101.28 319.11 100.07 319.70 100.04 319.77 L99.97 319.91L99.97 319.91 L99.66 319.91C99.49 319.91 98.87 320.08 98.25 320.29 C97.59 320.49 96.42 320.56 95.39 320.42 C94.39 320.29 92.46 319.73 91.08 319.18 L88.59 318.18L88.59 318.18 L88.59 318.04C88.59 317.98 88.77 317.77 89.01 317.60 C89.25 317.42 89.87 317.08 90.39 316.87 L91.35 316.46L91.35 316.11 L91.52 316.11C91.59 316.11 91.77 316.11 91.87 316.11 L92.04 316.11L92.04 316.11 L92.04 315.94C92.04 315.84 92.11 315.77 92.21 315.77 L92.39 315.77L92.21 315.60 92.39 315.53 L92.73 315.42 L93.18 315.08C93.42 314.87 93.73 314.74 93.80 314.74 C93.90 314.74 94.77 313.94 95.77 313.01 L97.56 311.29L97.56 311.29 L97.73 311.29C97.80 311.29 97.90 311.18 97.90 311.12 L97.90 310.94L97.90 310.94 L98.42 310.43L98.94 309.91L98.94 309.91 L99.45 309.39L99.97 308.88L99.97 308.88 L100.49 308.25C100.76 307.91 101.38 307.05 101.83 306.29 C102.28 305.53 102.83 304.46 103.04 303.95 L103.42 303.01L103.52 303.01 103.59 302.84 L103.62 302.67 103.76 302.43 L104.11 302.33 L104.11 302.15C104.11 302.05 104.73 300.57 105.49 298.84 C106.24 297.09 106.80 295.60 106.69 295.50 C106.62 295.40 105.42 295.57 104 295.88 C102.63 296.19 100.14 296.84 98.49 297.36 C96.83 297.88 95.49 298.33 95.49 298.40 L95.49 298.53L95.49 298.53 L95.11 298.53C94.94 298.53 93.73 298.98 92.49 299.57 C91.25 300.12 90.15 300.60 90.08 300.60 L89.97 300.60L89.97 300.60 L89.80 300.60C89.70 300.60 89.63 300.67 89.63 300.77 L89.63 300.95L89.63 300.95 L88.08 301.46L86.53 301.98L86.53 302.33 L86.35 302.33C86.25 302.33 86.08 302.33 86.01 302.33 L85.84 302.33L86.01 302.50 85.84 302.53 L85.49 302.67 L82.39 304.22L79.29 305.77L79.29 305.77 L78.08 306.29L76.87 306.81L76.87 306.81 L76.70 306.81C76.60 306.81 76.53 306.88 76.53 306.98 L76.53 307.15L76.53 307.15 L75.50 307.67L74.46 308.19L74.46 308.19 L74.25 308.19C74.15 308.19 73.77 308.32 73.39 308.53 C72.88 308.81 72.39 308.70 71.36 308.19 L69.98 307.50L69.98 307.50 L69.88 307.46C69.84 307.46 68.19 306.53 66.26 305.39 C64.33 304.26 62.74 303.19 62.74 303.01 C62.74 302.81 63.15 302.36 63.67 301.98 C64.19 301.60 65.64 300.67 66.88 299.91 C68.08 299.15 69.15 298.53 69.19 298.53 L69.29 298.53L69.29 298.53 L69.46 298.53C69.53 298.53 69.63 298.43 69.63 298.36 L69.63 298.19L69.63 298.19 L69.88 298.05C70.01 297.98 71.77 296.98 73.77 295.88 C75.74 294.74 79.08 292.95 81.18 291.88 C83.25 290.85 86.91 289.19 89.28 288.23 C91.63 287.26 95.04 285.92 96.87 285.23 C98.66 284.54 101.14 283.64 102.38 283.26 C103.59 282.88 105.90 282.19 107.45 281.75 L110.31 280.95L110.31 280.95 L110.38 280.95C110.45 280.95 112.17 280.54 114.28 280.09 C116.35 279.61 118.31 279.23 118.65 279.23 L119.28 279.23L119.28 279.23 L119.45 279.23C119.52 279.23 119.62 279.13 119.62 279.06 L119.62 278.88L119.62 278.88 L120.14 278.88C120.41 278.88 120.72 278.88 120.83 278.88 C120.90 278.88 121 278.78 121 278.71 L121 278.54L121 278.54 L122.45 278.33C123.24 278.23 124.58 278.06 125.38 277.99 L126.86 277.85L126.96 277.50 127.20 277.37 L127.55 277.50 L127.89 277.50C128.07 277.50 128.34 277.50 128.48 277.50 C128.62 277.50 128.86 277.40 129 277.33 L129.27 277.16L129.27 277.16 L131.93 276.92C133.41 276.82 137.68 276.61 141.48 276.51 C147.68 276.30 148.40 276.23 148.47 275.68 L148.58 275.09L148.58 275.09 L148.68 275.09C148.75 275.09 149.13 273.61 149.54 271.82 C149.96 270.02 150.30 268.40 150.30 268.20 C150.30 267.96 149.13 267.85 147.20 267.85 L144.10 267.85L144.10 267.85 L142.61 267.99C141.82 268.09 139.20 268.34 136.86 268.54 C134.48 268.75 130.75 269.13 128.58 269.40 C126.38 269.71 121.21 270.47 117.03 271.13 C112.86 271.78 109.07 272.40 108.66 272.47 L107.90 272.68L107.90 272.68 L106.24 272.89C105.35 272.99 104.49 273.16 104.35 273.23 L104.11 273.37L103.76 273.47 103.42 273.47 L103.07 273.37 L101.18 273.71L99.28 274.06L99.28 274.06 L94.46 275.09L89.63 276.13L89.63 276.13 L88.39 276.30C87.70 276.40 86.94 276.57 86.66 276.64 L86.18 276.82L86.18 276.82 L83.08 277.50L79.98 278.19L79.98 278.19 L74.53 279.57C71.57 280.33 69.08 281.02 69.01 281.12 L68.95 281.30L68.95 281.30 L68.46 281.30C68.19 281.30 66.46 281.75 64.57 282.30 C62.71 282.88 61.12 283.33 61.09 283.33 L61.02 283.37L61.02 283.37 L59.98 283.71L58.95 284.05L58.95 284.05 L58.74 284.05C58.60 284.05 56.95 284.54 55.02 285.12 C53.09 285.71 51.40 286.26 51.26 286.33 L51.02 286.47L51.02 286.47 L49.81 286.81L48.61 287.16L48.61 287.16 L47.40 287.67L46.19 288.19L46.19 288.19 L46.02 288.19C45.92 288.19 45.78 288.19 45.71 288.19 C45.64 288.19 44.09 287.02 42.26 285.61 L38.95 283.02L38.95 283.02 L38.95 282.85C38.95 282.74 38.85 282.68 38.78 282.68 L38.61 282.68L38.61 282.68 L37.23 281.47L35.85 280.26L35.85 280.26 L35.85 280.09C35.85 279.99 35.75 279.92 35.68 279.92 L35.51 279.92L35.51 279.92 L35.51 279.78C35.51 279.75 34.65 278.95 33.58 278.02 C32.51 277.13 31.71 276.19 31.78 275.99 C31.89 275.71 34.30 275.51 39.47 275.37 C45.37 275.16 47.68 274.95 49.88 274.40 L52.74 273.71L52.74 273.71 L52.98 273.68C53.12 273.68 55.57 273.06 58.43 272.27 C61.26 271.51 63.95 270.71 64.36 270.54 L65.15 270.27L65.15 270.27 L67.39 269.75L69.63 269.23L69.63 269.23 L69.81 269.23C69.88 269.23 69.98 269.13 69.98 269.06 L69.98 268.89L69.98 268.89 L70.22 268.85C70.36 268.85 71.25 268.65 72.19 268.34 C73.12 268.06 74.08 267.85 74.32 267.85 L74.81 267.85L74.81 267.85 L74.98 267.85C75.05 267.85 75.15 267.75 75.15 267.68 L75.15 267.51L75.15 267.51 L77.74 266.82L80.32 266.13L80.32 266.13 L80.84 266.13L81.36 266.13L81.36 266.13 L81.53 266.13C81.60 266.13 81.70 266.03 81.70 265.96 L81.70 265.78L81.70 265.78 L87.39 264.41L93.08 263.03L93.08 263.03 L94.01 262.85C94.52 262.79 96.83 262.30 99.11 261.79 C101.38 261.30 104.90 260.51 106.93 260.06 L110.66 259.23L110.66 259.23 L116.35 258.20L122.03 257.17L122.03 257.17 L124.79 256.82L127.55 256.48L127.55 256.48 L130.31 256.13L133.06 255.79L133.41 255.65 133.75 255.65 L134.10 255.79 L134.44 255.79C134.62 255.79 134.89 255.79 135.03 255.79 C135.17 255.79 135.41 255.68 135.55 255.61 L135.82 255.44L135.82 255.44 L138.48 255.24C139.96 255.13 142.75 254.99 144.68 254.89 L148.23 254.75L148.23 254.75 L148.30 254.72C148.34 254.68 149.71 254.62 151.33 254.51 C152.92 254.44 154.58 254.27 154.99 254.20 C155.61 254.06 155.85 253.62 156.30 251.65 C156.57 250.34 156.85 248.55 156.85 247.72 C156.85 246.48 156.68 246.03 156.06 245.62 C155.47 245.20 154.37 245.10 151.40 245.10 L147.54 245.10 147.54 234.07 L147.54 223.04L147.54 223.04 L147.54 219.07C147.54 216.87 147.54 215.01 147.54 214.94 C147.54 214.83 147.54 212.35 147.54 209.42 L147.54 204.08L147.54 204.08 L147.54 202.53C147.54 201.67 147.54 200.87 147.54 200.80 C147.54 200.70 147.54 198.77 147.54 196.49 L147.54 192.36L147.54 192.36 L147.54 191.67C147.54 191.29 147.54 189.50 147.54 187.74 C147.54 185.64 147.78 183.57 148.23 181.81 C148.61 180.33 149.44 178.15 150.13 176.95 L151.33 174.78L151.33 174.78 L151.51 174.78C151.58 174.78 151.68 174.67 151.68 174.60 L151.68 174.43L151.68 174.43 L151.75 174.40C151.78 174.40 152.23 173.88 152.68 173.29 C153.16 172.71 154.44 171.57 155.54 170.74 L157.54 169.26L157.54 168.92 L157.71 168.92C157.78 168.92 157.95 168.92 158.06 168.92 L158.23 168.92L158.06 168.74 158.23 168.67 L158.57 168.57 L158.64 168.54C158.68 168.54 159.44 168.16 160.33 167.68 C161.23 167.23 163.02 166.54 164.40 166.16 L166.85 165.47L166.85 165.47 L168.12 165.30C168.85 165.19 170.67 165.12 172.19 165.12 C173.88 165.12 176.09 165.40 177.71 165.81 C179.19 166.19 180.43 166.50 180.50 166.50 L180.64 166.50L180.64 166.50 L182.53 167.50C183.60 168.09 184.88 168.85 185.39 169.19 C185.91 169.54 186.50 169.92 186.74 170.05 L187.19 170.29L187.19 170.29 L187.19 170.47C187.19 170.54 187.26 170.64 187.36 170.64 L187.53 170.64L187.53 170.64 L187.53 170.81C187.53 170.88 187.60 170.98 187.70 170.98 L187.88 170.98L187.88 170.98 188.05 171.16 L188.22 171.19 188.43 171.33 L188.57 171.67 L189.77 172.85C190.43 173.54 190.98 174.12 190.98 174.22 C190.98 174.29 191.12 174.47 191.32 174.57 L191.67 174.78L191.67 174.78 L192.67 176.57C193.22 177.57 193.98 179.33 194.39 180.53 C194.77 181.71 195.12 182.74 195.12 182.84 L195.12 183.05L195.12 183.05 L195.29 188.81C195.39 191.98 195.46 196.56 195.46 198.98 L195.46 203.39L195.46 203.39 L195.46 207.53L195.46 211.66L195.46 211.66 L195.46 212.87C195.46 213.52 195.46 214.14 195.46 214.25 C195.46 214.32 195.46 215.56 195.46 217.01 L195.46 219.59L195.46 219.59 L195.46 221.49C195.46 222.52 195.46 223.45 195.46 223.56 C195.46 223.62 195.46 224.97 195.46 226.49 L195.46 229.24L195.46 229.24 L195.46 236.79L195.46 244.34 193.46 244.58 C192.36 244.69 190.67 245 189.63 245.27 C188.63 245.51 187.46 245.96 186.98 246.27 C186.53 246.58 185.88 247.24 185.53 247.75 C185.12 248.34 184.95 249.24 185.01 250.31 C185.05 251.20 185.29 252.48 185.57 253.10 L186.05 254.30 199.29 254.48 C206.56 254.62 212.56 254.72 212.59 254.72 L212.70 254.75L212.70 254.75 L214.83 254.93C216.01 255.03 217.56 255.17 218.28 255.27 L219.59 255.44L219.59 255.44 L219.83 255.41C219.97 255.41 220.66 255.48 221.38 255.58 L222.69 255.79L222.69 255.79 L222.87 255.79C222.93 255.79 223.28 255.79 223.62 255.79 C223.97 255.79 224.80 255.86 225.52 255.96 L226.83 256.13L226.83 256.13 L227.93 256.30C228.55 256.41 229.31 256.48 229.66 256.48 L230.28 256.48L230.28 256.48 L233.28 256.96C234.93 257.23 236.55 257.55 236.90 257.65 L237.52 257.86L237.52 257.86 L237.76 257.82C237.90 257.82 238.38 257.89 238.79 257.99 L239.58 258.20L239.58 258.20 L240 258.20C240.24 258.20 241.45 258.44 242.69 258.72 C243.89 258.96 245.10 259.20 245.34 259.20 L245.79 259.23L245.79 259.23 L248.03 259.75L250.27 260.27L250.27 260.27 L250.44 260.27C250.51 260.27 252.24 260.65 254.24 261.13 C256.27 261.58 257.96 261.99 258.03 261.99 L258.20 261.99L258.20 261.99 L262.06 262.99C264.20 263.54 268.75 264.85 272.16 265.89 C275.57 266.92 278.61 267.89 278.95 267.99 L279.57 268.20L279.57 268.20 L282.16 269.06L284.74 269.92L284.74 269.92 L285.95 270.44L287.16 270.96L287.16 270.96 L289.05 271.64L290.95 272.33L290.95 272.33 L292.16 272.85L293.36 273.37L293.36 273.37 L294.57 273.71L295.78 274.06L295.78 274.06 L297.74 274.54C298.84 274.82 300.88 275.20 302.33 275.37 C303.74 275.57 306.63 275.82 308.74 275.95 L312.60 276.19 310.56 278.09 C309.43 279.13 308.53 280.02 308.53 280.12 L308.53 280.26L308.53 280.26 L308.36 280.26C308.25 280.26 308.19 280.33 308.19 280.44 L308.19 280.61L308.19 280.61 L307.67 280.99C307.36 281.19 307.15 281.43 307.15 281.50 C307.15 281.57 307.05 281.64 306.98 281.64 L306.81 281.64L306.81 281.64 L306.63 281.64C306.53 281.64 306.46 281.71 306.46 281.81 L306.46 281.99L306.46 281.99 L306.29 281.99C306.19 281.99 306.12 282.06 306.12 282.16 L306.12 282.33L306.12 282.33 L305.94 282.33C305.84 282.33 305.77 282.40 305.77 282.50 L305.77 282.68L305.77 282.68 L304.39 283.71L303.01 284.74L303.01 284.74 L302.84 284.74C302.74 284.74 302.67 284.81 302.67 284.92 L302.67 285.09L302.67 285.09 L300.08 286.81L297.50 288.54L297.50 288.54 L297.33 288.54C297.22 288.54 297.15 288.61 297.15 288.71 L297.15 288.88L297.15 288.88 L295.09 290.09L293.02 291.29L293.02 291.64 L292.85 291.64C292.74 291.64 292.57 291.64 292.50 291.64 L292.33 291.64L292.50 291.81 292.33 291.85 L291.98 291.98 L291.81 291.98C291.71 291.98 291.54 291.98 291.47 291.98 L291.29 291.98L291.29 291.98 L290.43 291.47L289.57 290.95L289.23 290.95 L289.05 290.95C288.95 290.95 288.88 290.85 288.88 290.78 L288.88 290.60L288.71 290.78 288.54 290.71 L288.19 290.60 L288.09 290.47C288.05 290.40 287.67 290.16 287.26 289.95 C286.85 289.74 286.33 289.57 286.12 289.57 L285.78 289.57L285.78 289.43 285.61 289.40 L285.43 289.33 285.19 289.23 L285.09 288.88 L284.95 288.88C284.88 288.88 282.12 287.64 278.81 286.16 C275.54 284.64 271.89 283.02 270.68 282.54 C269.51 282.02 268.47 281.64 268.37 281.64 L268.20 281.64L268.20 281.64 L267.40 281.23C266.99 281.02 265.58 280.50 264.30 280.02 L261.99 279.23L261.99 279.23 L258.03 277.85L254.06 276.47L254.06 276.47 L251.48 275.78L248.89 275.09L248.89 275.09 L248.44 274.92C248.20 274.82 247.07 274.51 245.89 274.23 C244.72 273.92 243.69 273.71 243.58 273.71 L243.38 273.71L243.38 273.71 L242.58 273.47C242.17 273.37 241.27 273.13 240.62 272.99 C239.93 272.82 239.14 272.68 238.79 272.68 L238.21 272.68L238.21 272.68 L237.93 272.51C237.79 272.40 235.97 272.02 233.90 271.64 C231.79 271.27 227.86 270.64 225.18 270.27 C222.45 269.89 220.07 269.58 219.90 269.58 L219.59 269.58L219.59 269.58 L218.45 269.37C217.83 269.27 215.21 269.13 212.59 269.02 L207.87 268.89L207.87 268.89 L207.63 268.71C207.49 268.61 205.70 268.54 203.66 268.54 C201.60 268.54 199.84 268.54 199.77 268.54 L199.60 268.54L199.25 268.54 L199.08 268.54C198.98 268.54 198.80 268.54 198.73 268.54 L198.56 268.54L198.22 268.54 L197.94 268.51C197.80 268.51 197.15 268.58 196.49 268.68 C195.80 268.78 194.91 268.85 194.49 268.85 L193.74 268.89L193.74 268.89 L192.05 268.89C191.15 268.89 190.12 269.06 189.81 269.30 C189.25 269.71 189.36 269.92 191.12 271.89 C192.19 273.02 193.53 274.30 194.15 274.68 C194.77 275.06 196.11 275.51 197.18 275.75 C198.22 275.95 199.18 276.13 199.32 276.13 L199.60 276.13L199.60 276.13 L199.77 276.13C199.84 276.13 202.22 276.44 204.97 276.82 C207.77 277.19 211.52 277.82 213.28 278.19 C215.07 278.57 216.70 278.88 216.87 278.88 L217.18 278.88L217.18 278.88 L222.87 280.44L228.55 281.99L228.90 281.99 L229.07 281.99C229.14 281.99 229.31 281.99 229.42 281.99 L229.59 281.99L229.59 282.33 L229.86 282.33C230.04 282.33 231.76 282.85 233.72 283.47 C235.72 284.12 237.76 284.81 238.27 285.02 L239.24 285.43L239.24 285.43 L240.52 285.81C241.24 286.02 243.41 286.88 245.41 287.71 C247.38 288.54 249.06 289.29 249.10 289.40 L249.24 289.57L249.58 289.43 249.93 289.57 L250.10 289.74 250.27 289.92 L250.62 289.78 250.96 289.92 L250.96 290.26 L251.17 290.26C251.31 290.26 251.48 290.33 251.58 290.43 C251.68 290.50 251.89 290.60 252.03 290.60 L252.34 290.60L252.34 290.60 L252.44 290.78C252.51 290.85 252.62 290.95 252.68 290.95 C252.79 290.98 253.03 291.05 253.27 291.12 L253.72 291.29L253.72 291.29 L255.96 292.50L258.20 293.71L258.20 293.71 L261.13 295.26L264.06 296.81L264.06 296.81 L264.16 296.98C264.23 297.05 264.34 297.15 264.44 297.15 C264.54 297.15 264.72 297.22 264.85 297.33 L265.09 297.50L265.09 297.50 L265.96 298.02L266.82 298.53L266.82 298.53 L268.54 299.57L270.27 300.60L270.27 300.60 L271.13 301.19C271.58 301.50 271.99 301.81 271.99 301.88 C271.99 301.91 272.06 301.98 272.16 301.98 L272.33 301.98L272.33 302.08 272.51 302.15 L272.68 302.33 L272.85 302.33C272.92 302.33 273.02 302.39 273.02 302.50 L273.02 302.67L273.20 302.50 273.37 302.53 L273.71 302.67 L274.57 303.19L275.44 303.70L275.44 303.70 L274.92 304.22L274.40 304.74L274.40 304.74 L271.82 306.29L269.23 307.84L269.23 307.84 L267.51 308.70L265.78 309.56L265.78 309.56 L265.61 309.56C265.51 309.56 265.44 309.63 265.44 309.74 L265.44 309.91L265.44 309.91 L265.27 309.91C265.20 309.91 264.85 309.98 264.54 310.12 C264.20 310.25 263.30 310.01 262.44 309.60 L260.96 308.88L260.96 308.88 260.79 308.70 L260.61 308.53 L260.44 308.53C260.34 308.53 260.27 308.43 260.27 308.36 L260.27 308.19L260.10 308.36 259.92 308.29 L259.58 308.19 L259.06 307.84L258.54 307.50L258.54 307.50 258.37 307.32 L258.20 307.15 L258.03 307.15C257.92 307.15 257.86 307.05 257.86 306.98 L257.86 306.81L257.86 306.81 L257.51 306.63L257.17 306.46L256.99 306.63 256.82 306.57 L256.48 306.46 L255.79 306.12L255.10 305.77L255.10 305.63 254.93 305.60 L254.75 305.53 254.51 305.43 L254.41 305.08 L254.13 304.98C253.99 304.91 252.27 304.05 250.31 303.05 C248.34 302.05 245.07 300.53 243 299.71 C240.93 298.84 239.03 298.19 238.72 298.19 L238.21 298.19L238.21 298.19 L238.21 298.02C238.21 297.91 238.10 297.84 238.03 297.84 L237.86 297.84L237.86 297.84 L237.24 297.64C236.90 297.50 235.31 297.12 233.72 296.78 C232.10 296.40 230.66 296.12 230.52 296.12 L230.28 296.12L230.28 296.12 L230.17 296.05C230.14 296.02 229.66 295.95 229.14 295.84 C228.62 295.78 228.21 295.81 228.21 295.88 C228.21 295.98 228.38 296.46 228.59 296.95 C228.80 297.43 229.04 297.84 229.11 297.84 L229.24 297.84L229.24 297.84 L229.24 298.02C229.24 298.15 229.31 298.36 229.42 298.53 L229.59 298.88L229.59 298.88 L230.10 299.74L230.62 300.60L230.62 300.60 L231.14 301.81L231.66 303.01L231.66 303.01 L232 303.70L232.35 304.39L232.45 304.39 232.52 304.57 L232.69 304.74 L232.69 304.91C232.69 304.98 232.69 305.15 232.69 305.26 L232.69 305.43L232.69 305.43 L232.86 305.77L233.04 306.12L233.21 305.94 233.38 306.12 L233.38 306.46 L233.55 306.57C233.62 306.63 233.72 306.74 233.72 306.84 C233.72 306.94 233.79 307.12 233.90 307.25 L234.07 307.50L234.41 307.50 L234.41 307.67C234.41 307.74 234.41 307.91 234.41 308.01 L234.41 308.19L234.41 308.19 L234.59 308.19C234.66 308.19 234.76 308.25 234.76 308.36 L234.76 308.53L234.93 308.36 234.97 308.53 L235.10 308.88 L238.45 312.25C240.31 314.11 243.14 316.63 244.76 317.80 C246.34 318.98 247.72 320.08 247.79 320.25 C247.82 320.42 247.20 320.73 246.41 320.97 C245.58 321.22 243.41 321.42 241.55 321.39 C239.69 321.39 238.10 321.35 238.03 321.32 L237.86 321.29L237.86 321.29 L234.93 319.73L232 318.18L232 318.18 L230.97 317.49L229.93 316.80L229.93 316.80 L229.93 316.63C229.93 316.53 229.83 316.46 229.76 316.46 L229.59 316.46L229.59 316.46 L229.45 316.29C229.38 316.18 229.24 316.11 229.11 316.11 L228.90 316.11L228.90 316.11 L228.90 315.94C228.90 315.84 228.80 315.77 228.73 315.77 L228.55 315.77L228.55 315.77 L228.55 315.60C228.55 315.49 228.45 315.42 228.38 315.42 L228.21 315.42L228.21 315.42 L228.21 315.25C228.21 315.15 228.07 315.08 227.90 315.08 C227.76 315.08 226.35 313.91 224.83 312.46 C223.28 311.05 221.35 308.91 220.52 307.74 C219.66 306.57 218.35 304.53 217.56 303.26 L216.14 300.95L216.14 300.95 L216.14 300.77C216.14 300.67 216.04 300.60 215.97 300.60 L215.80 300.60L215.80 300.60 L215.80 300.43C215.80 300.33 215.70 300.26 215.63 300.26 L215.45 300.26L215.45 300.26 L215.45 300.02C215.45 299.91 214.70 298.71 213.80 297.36 C212.90 296.02 211.28 294.09 210.18 293.09 L208.21 291.29L208.21 291.29 L208.21 291.12C208.21 291.02 208.11 290.95 208.04 290.95 L207.87 290.95L207.87 290.95 L207.87 290.81C207.87 290.71 207.22 290.40 206.46 290.12 C205.70 289.81 204.94 289.57 204.73 289.57 L204.42 289.57L204.42 289.57 L204.42 289.43C204.42 289.36 203.53 289.12 202.42 288.92 C201.32 288.71 198.98 288.36 197.22 288.16 C195.43 287.98 193.91 287.88 193.84 287.95 C193.77 288.02 194.01 289.23 194.39 290.64 C194.77 292.02 195.46 294.98 195.94 297.22 C196.43 299.43 196.84 301.33 196.84 301.43 C196.84 301.53 195.70 300.91 194.32 300.08 C192.94 299.22 191.77 298.53 191.74 298.53 L191.67 298.53L191.67 298.53 L191.67 298.36C191.67 298.26 191.56 298.19 191.50 298.19 L191.32 298.19L191.32 298.19 L190.94 297.74C190.74 297.50 190.50 297.19 190.39 297.05 C190.29 296.91 190.19 296.81 190.15 296.81 C190.12 296.81 189.43 296.09 188.63 295.26 L187.19 293.71L186.84 293.71 L186.84 293.53C186.84 293.43 186.84 293.26 186.84 293.19 L186.84 293.02L186.84 293.02 L186.67 293.02C186.57 293.02 186.50 292.91 186.50 292.85 L186.50 292.67L186.32 292.85 186.26 292.67 L186.15 292.33 L182.46 287.81C180.22 285.05 178.67 283.43 178.46 283.64 C178.29 283.81 178.22 286.67 178.29 290.29 C178.36 293.78 178.46 296.67 178.50 296.71 L178.57 296.81L178.57 296.81 L178.57 296.98C178.57 297.09 178.74 297.88 178.95 298.71 C179.15 299.57 179.40 300.26 179.46 300.26 L179.60 300.26L179.60 300.26 L179.60 300.43C179.60 300.50 179.60 300.67 179.60 300.77 L179.60 300.95L179.77 300.77 179.81 300.95 L179.95 301.29 L180.22 302.05C180.40 302.46 181.15 303.60 181.91 304.57 C182.67 305.50 184.43 307.19 185.84 308.25 C187.26 309.36 188.53 310.25 188.67 310.25 L188.91 310.25L188.91 310.25 L190.74 311.63C191.77 312.39 192.67 313.01 192.77 313.01 C192.84 313.01 193.01 313.08 193.15 313.18 L193.39 313.36L193.39 313.36 L193.39 313.53C193.39 313.60 193.46 313.70 193.56 313.70 L193.74 313.70L193.74 313.70 L196.67 315.42L199.60 317.15L199.60 317.25 199.77 317.32 L199.94 317.36 200.15 317.49 L200.29 317.84 L201.32 318.35L202.35 318.87L202.35 318.87 L202.35 319.04C202.35 319.11 202.42 319.22 202.53 319.22 L202.70 319.22L202.70 319.22 L205.70 320.97C207.35 321.94 209.80 323.53 211.15 324.49 C212.45 325.42 214.73 327.18 216.21 328.39 C218.45 330.21 218.80 330.59 218.28 330.87 C217.94 331.04 216.38 331.59 214.80 332.11 C212.45 332.90 211.77 333.01 211.08 332.70 C210.63 332.49 210.18 332.32 210.08 332.32 L209.94 332.32L209.94 332.32 209.77 332.14 L209.59 331.97 L209.42 331.97C209.32 331.97 209.25 331.87 209.25 331.80 L209.25 331.63L209.25 331.63 L208.90 331.45L208.56 331.28L208.39 331.45 208.21 331.39 L207.87 331.28 L207.87 331.14C207.87 331.04 206.25 330.32 204.32 329.46 C202.39 328.59 199.98 327.66 198.98 327.35 L197.18 326.80L197.18 326.80 L194.77 325.77L192.36 324.73L192.36 324.73 L188.05 322.84L183.74 320.94L183.74 320.94 L183.46 320.80C183.33 320.73 182.53 320.32 181.71 319.91 C180.88 319.49 180.12 319.22 180.02 319.32 C179.91 319.42 180.02 320.66 180.22 322.04 C180.43 323.42 180.60 324.59 180.60 324.63 L180.64 324.73L180.64 324.73 L180.77 325.66C180.88 326.18 181.12 327.59 181.33 328.77 C181.57 329.94 181.81 330.94 181.88 330.94 L182.02 330.94L182.02 330.94 L182.53 332.87C182.84 333.94 183.43 335.52 183.84 336.38 C184.22 337.28 184.60 338.11 184.67 338.25 C184.74 338.38 183.39 338.52 181.67 338.52 C179.95 338.52 178.46 338.52 178.40 338.52 L178.22 338.52L178.22 338.52 L178.12 338.52C178.09 338.56 177.84 338.62 177.60 338.73 C177.36 338.83 177.15 338.87 177.15 338.80 C177.15 338.73 176.29 337.69 175.26 336.52 L173.40 334.38"></path>
  <path d="M126.17 242.34 L126.17 242.17C126.17 242.07 126.07 242 126 242 L125.83 242L125.83 242 125.65 241.83 L125.48 241.76 125.24 241.65 L125.14 241.31 L124.89 241.14C124.76 241.03 124.65 240.96 124.62 240.96 C124.58 240.96 124.31 240.72 124 240.45 L123.41 239.93L123.41 239.93 L123.17 239.48C123.03 239.24 122.45 238.45 121.83 237.69 C121.24 236.93 119.96 235.14 119 233.72 C118.07 232.28 116.41 229.48 115.38 227.52 C114.31 225.52 112.97 222.49 112.42 220.76 C111.83 219.07 111.11 216.28 110.83 214.63 C110.52 212.94 110.31 210.63 110.31 209.52 L110.31 207.53L110.31 207.53 L110.31 205.97L110.31 204.42L110.31 204.42 L110.31 203.73C110.31 203.35 110.31 202.29 110.31 201.39 C110.31 200.49 110.45 198.73 110.66 197.53 C110.83 196.29 111.45 194.39 112.04 193.29 L113.07 191.32L113.07 191.32 L113.24 191.32C113.31 191.32 113.42 191.22 113.42 191.15 L113.42 190.98L113.42 190.98 L113.59 190.98C113.66 190.98 113.76 190.88 113.76 190.81 L113.76 190.63L113.76 190.63 L113.93 190.63C114 190.63 114.10 190.53 114.10 190.46 L114.10 190.29L114.10 190.29 L114.31 190.12C114.45 190.01 114.55 189.91 114.59 189.91 C114.59 189.91 115.79 189.05 117.28 188.01 L119.96 186.15L119.96 186.15 L120.14 186.15C120.24 186.15 121.27 185.74 122.45 185.26 C123.62 184.74 125.58 184.12 126.82 183.88 C128.07 183.60 130.82 183.39 132.96 183.39 C135.10 183.39 136.86 183.46 136.86 183.57 L136.86 183.74L136.86 183.74 L136.86 183.91C136.86 183.98 136.86 184.77 136.86 185.64 L136.86 187.19L136.86 187.19 L136.86 187.70C136.86 187.98 136.86 188.29 136.86 188.39 C136.86 188.46 136.86 189.63 136.86 190.98 L136.86 193.39L136.86 193.39 L136.86 194.60C136.86 195.25 136.86 195.87 136.86 195.98 C136.86 196.05 136.86 197.29 136.86 198.73 L136.86 201.32L136.86 201.32 L136.86 205.11C136.86 207.18 136.86 208.97 136.86 209.08 C136.86 209.15 136.86 209.94 136.86 210.80 L136.86 212.35L136.86 212.35 L136.86 212.87L136.86 213.39L136.86 213.39 L136.86 229.35C136.86 238.14 136.75 245.41 136.62 245.55 C136.48 245.69 136.34 245.79 136.27 245.79 L136.17 245.79L136.17 245.79 L136.03 245.79C135.96 245.79 134.41 245.41 132.58 244.93 C130.79 244.48 128.58 243.69 127.72 243.20 L126.17 242.34"></path>
  <path d="M206.49 235.45 L206.49 233.62C206.49 232.62 206.42 230.93 206.32 229.83 L206.15 227.86L206.15 227.86 L206.15 226.31C206.15 225.45 206.15 224.66 206.15 224.59 C206.15 224.49 206.15 223.62 206.15 222.69 L206.15 220.97L206.15 220.97 L206.15 220.80C206.15 220.69 206.15 220.07 206.15 219.42 L206.15 218.21L206.15 218.21 L206.15 217.52C206.15 217.14 206.15 216.73 206.15 216.66 C206.15 216.56 206.15 215.63 206.15 214.59 L206.15 212.70L206.15 212.70 L206.15 212.18C206.15 211.87 206.15 211.56 206.15 211.49 C206.15 211.39 206.15 210.77 206.15 210.11 L206.15 208.90L206.15 208.90 L206.15 208.21C206.15 207.84 206.15 207.42 206.15 207.35 C206.15 207.25 206.15 206.32 206.15 205.28 L206.15 203.39L206.15 203.39 L206.15 202.87L206.15 202.35L206.15 202.35 L206.15 198.73C206.15 196.74 206.15 195.01 206.15 194.94 C206.15 194.84 206.15 193.91 206.15 192.87 L206.15 190.98L206.15 190.98 L206.15 190.81C206.15 190.70 206.15 189.08 206.15 187.19 L206.15 183.74 207.42 183.70 C208.15 183.70 209.52 183.64 210.52 183.53 L212.35 183.39L212.35 183.39 L214.63 183.57C215.90 183.67 217.07 183.81 217.21 183.91 L217.52 184.08L217.52 184.08 L218.45 184.26C218.97 184.36 219.49 184.53 219.66 184.60 L219.94 184.77L219.94 184.77 L221.90 185.46C223 185.84 224.97 186.81 226.28 187.57 C227.59 188.36 229.31 189.63 230.10 190.43 C231 191.32 231.83 192.67 232.28 193.84 C232.69 194.94 233.04 196.05 233.04 196.32 C233.04 196.60 233.04 196.91 233.04 197.01 L233.04 197.18L233.04 197.18 L233.38 201.15L233.72 205.11L233.72 205.11 L233.72 205.28C233.72 205.35 233.69 206.25 233.69 207.25 C233.66 208.25 233.59 209.73 233.52 210.52 L233.38 212.01L233.38 212.01 L233.35 213.28C233.35 214.01 233.07 215.83 232.69 217.38 C232.31 218.94 231.45 221.59 230.76 223.28 C230.10 224.97 228.38 228.28 226.97 230.62 C225.55 232.93 224.42 234.90 224.42 234.97 L224.42 235.10L224.42 235.10 L223.69 235.86C223.31 236.28 222.45 237.31 221.76 238.10 C221.11 238.90 220.49 239.58 220.42 239.58 C220.35 239.58 220.28 239.65 220.28 239.76 C220.28 239.90 220.18 240.10 220.11 240.27 L219.94 240.62L219.94 240.62 L219.76 240.62C219.66 240.62 219.59 240.69 219.59 240.79 L219.59 240.96L219.59 240.96 L217.69 242.41C216.63 243.20 215.80 243.89 215.80 243.96 C215.80 244 215.70 244.07 215.63 244.07 L215.45 244.07L215.45 244.07 L215.28 244.07C215.18 244.07 215.11 244.14 215.11 244.24 L215.11 244.41L215.11 244.41 L214.87 244.41C214.73 244.41 214.56 244.48 214.45 244.58 C214.35 244.65 214.14 244.76 214.01 244.76 L213.73 244.76L213.73 245.10 L213.56 245.10C213.45 245.10 213.28 245.10 213.21 245.10 L213.04 245.10L212.70 245.10 L212.70 245.20C212.70 245.27 212.18 245.45 211.59 245.55 C211.01 245.69 209.63 245.79 208.49 245.79 L206.49 245.79 206.49 240.62 L206.49 235.45"></path>
  <path d="M208.56 176.02 L208.39 175.98 L208.21 175.91 207.97 175.81 L207.87 175.47 L206.49 174.78L205.11 174.09L205.11 174.09 L205.11 173.91C205.11 173.81 205.01 173.74 204.94 173.74 L204.77 173.74L204.77 173.74 L204.77 173.57C204.77 173.47 204.66 173.40 204.60 173.40 L204.42 173.40L204.42 173.40 L204.42 173.23C204.42 173.12 204.32 173.05 204.25 173.05 L204.08 173.05L204.08 173.05 L203.80 172.60C203.66 172.36 203.11 171.36 202.60 170.40 C202.04 169.40 201.39 167.54 201.11 166.26 C200.84 164.95 200.63 163.78 200.63 163.64 L200.63 163.40L200.63 163.40 L200.63 162.88C200.63 162.57 200.63 161.78 200.63 161.06 C200.63 160.33 200.84 158.71 201.11 157.40 C201.39 156.13 202.01 154.20 202.49 153.20 L203.39 151.33L203.39 151.33 L203.56 151.33C203.63 151.33 203.73 151.23 203.73 151.16 L203.73 150.99L203.73 150.99 L203.73 150.89C203.73 150.82 204.28 150.20 205.01 149.54 C205.73 148.85 206.97 147.96 207.77 147.58 L209.25 146.85L209.25 146.85 L209.84 146.68C210.18 146.61 211.52 146.58 212.87 146.65 C214.18 146.68 215.32 146.75 215.35 146.78 L215.45 146.85L215.45 146.85 L217.07 147.68C217.97 148.13 219.07 148.89 219.56 149.40 C220 149.89 220.42 150.30 220.49 150.30 L220.63 150.30L220.63 150.30 L220.63 150.47C220.63 150.54 220.69 150.65 220.80 150.65 L220.97 150.65L220.97 150.65 L221.97 152.44C222.52 153.44 223.24 155.20 223.52 156.30 C223.83 157.44 224.07 158.78 224.07 159.33 C224.07 159.85 224.07 160.44 224.07 160.64 L224.07 160.99L224.07 160.99 L223.90 163.71C223.83 165.19 223.69 166.61 223.56 166.81 L223.38 167.19L223.38 167.19 L223.14 167.95C223.04 168.36 222.49 169.61 221.90 170.71 C221.31 171.81 220.25 173.26 219.52 173.91 C218.80 174.57 218.11 175.12 218.01 175.12 L217.87 175.12L217.87 175.47 L217.69 175.47C217.59 175.47 217.42 175.47 217.35 175.47 L217.18 175.47L217.35 175.64 217.18 175.67 L216.83 175.81 L215.87 176.16C215.35 176.36 213.87 176.53 212.59 176.53 C211.32 176.53 210.11 176.43 209.94 176.33 C209.77 176.22 209.39 176.16 209.08 176.16 L208.56 176.16"></path>
  <path d="M124.45 175.12 L124.45 174.95C124.45 174.85 124.34 174.78 124.27 174.78 L124.10 174.78L124.10 174.78 L123.83 174.57C123.69 174.43 123.31 174.22 123 174.05 C122.65 173.88 121.93 173.02 121.34 172.16 L120.31 170.64L120.31 170.64 L120.31 170.47C120.31 170.36 120.21 170.29 120.14 170.29 L119.96 170.29L119.96 170.29 L119.72 169.67C119.62 169.33 119.31 168.30 119.03 167.36 C118.79 166.40 118.59 165.50 118.59 165.37 L118.59 165.12L118.59 165.12 L118.48 164.68C118.45 164.43 118.41 162.81 118.45 161.09 C118.48 159.37 118.76 157.09 119.03 156.06 C119.34 154.99 119.62 154.06 119.62 153.92 L119.62 153.75L119.62 153.75 L120.48 152.20L121.34 150.65L121.34 150.65 L121.52 150.65C121.59 150.65 121.69 150.54 121.69 150.47 L121.69 150.30L121.69 150.30 L121.76 150.23C121.79 150.20 122.34 149.68 122.93 149.09 C123.55 148.47 124.62 147.68 125.34 147.34 C126.17 146.92 127.69 146.65 129.27 146.54 C131.38 146.44 132.27 146.58 133.68 147.16 L135.48 147.89L135.48 147.89 L136.03 148.40C136.37 148.68 136.65 148.92 136.68 148.92 C136.72 148.92 136.82 148.99 136.96 149.09 L137.20 149.27L137.20 149.27 L137.20 149.44C137.20 149.51 137.27 149.61 137.37 149.61 L137.55 149.61L137.55 149.61 L137.55 149.78C137.55 149.85 137.61 149.96 137.72 149.96 L137.89 149.96L137.89 149.96 L137.89 150.13C137.89 150.20 137.96 150.30 138.06 150.30 L138.24 150.30L138.10 150.30 138.41 150.47 L138.58 150.65 L138.58 150.82C138.58 150.89 138.58 151.06 138.58 151.16 L138.58 151.33L138.75 151.16 138.92 151.33 L138.92 151.68 L139.41 152.44C139.68 152.85 140.17 153.99 140.48 154.95 C140.75 155.89 141.17 157.82 141.34 159.23 C141.51 160.64 141.68 161.99 141.68 162.23 L141.68 162.71L141.68 162.71 L141.37 164.50C141.20 165.50 140.92 166.78 140.79 167.36 C140.65 167.92 140.23 169.05 139.89 169.88 C139.55 170.71 139.17 171.54 139.06 171.71 L138.92 172.02L138.92 172.02 L137.75 173.23C137.10 173.88 136.51 174.43 136.41 174.43 C136.34 174.43 136.17 174.50 136.03 174.60 L135.82 174.78L135.82 175.12 L135.65 175.12C135.55 175.12 135.37 175.12 135.31 175.12 L135.13 175.12L135.31 175.29 135.13 175.33 L134.79 175.47 L133.93 175.81L133.06 176.16L133.06 176.16 L132.96 176.19C132.93 176.22 131.89 176.29 130.69 176.40 C129.03 176.50 128 176.36 126.45 175.81 L124.45 175.12"></path>
  <path d="M314.74 158.57 L313.60 158.54C312.98 158.54 310.63 158.40 308.36 158.20 C306.08 158.02 303.32 157.78 302.22 157.71 L300.26 157.54L300.26 157.54 L300.12 157.54C300.08 157.54 297.81 157.23 295.09 156.85 C292.33 156.47 290.05 156.16 290.02 156.16 L289.92 156.16L289.92 156.16 L288.78 155.95C288.16 155.85 287.54 155.78 287.40 155.78 L287.16 155.82L287.16 155.82 L286.36 155.61C285.95 155.51 283.81 155.09 281.64 154.71 C279.44 154.33 277.30 153.95 276.88 153.89 L276.13 153.75L276.13 153.75 L272.68 152.89L269.23 152.02L268.89 152.13 268.54 152.13 L268.20 152.02 L267.75 151.85C267.51 151.75 265.65 151.30 263.58 150.82 C261.54 150.34 259.79 149.96 259.72 149.96 L259.58 149.96L259.58 149.96 L258.44 149.58C257.82 149.37 255.51 148.68 253.31 148.03 C251.06 147.37 249.17 146.85 249.06 146.85 L248.89 146.85L248.89 146.85 L248.89 146.68C248.89 146.58 248.79 146.51 248.72 146.51 L248.55 146.51L248.55 146.51 L247.24 146.16C246.51 145.96 244.55 145.34 242.86 144.79 C241.17 144.20 239.65 143.75 239.52 143.75 L239.24 143.75L239.24 143.75 L239.24 143.58C239.24 143.48 239.14 143.41 239.07 143.41 L238.90 143.41L238.55 143.51 238.31 143.41 L238.21 143.06 L237.41 142.82C237 142.72 233.69 141.44 230.10 140.03 C226.49 138.61 222.66 136.99 221.56 136.44 L219.59 135.48L219.59 135.48 L218.90 135.13C218.56 134.93 218.14 134.79 218.04 134.79 C217.90 134.79 215.90 133.75 213.52 132.55 L209.25 130.31L209.25 130.17 209.08 130.13 L208.90 130.07 208.66 129.96 L208.56 129.62 L208.11 129.44C207.87 129.38 207.63 129.31 207.59 129.27 L207.53 129.27L207.53 129.27 L207.53 129.10C207.53 129 207.42 128.93 207.35 128.93 L207.18 128.93L207.18 128.93 L206.39 128.51C205.97 128.31 204.28 127.27 202.63 126.27 C200.98 125.27 199.56 124.45 199.42 124.45 L199.25 124.45L199.25 124.45 L197.70 123.41L196.15 122.38L196.15 122.38 L196.15 122.21C196.15 122.10 196.05 122.03 195.98 122.03 L195.80 122.03L195.80 122.03 L195.63 122.03C195.53 122.03 195.46 121.96 195.46 121.90 C195.46 121.83 194.29 120.96 192.87 120 L190.29 118.24L190.29 118.24 L190.19 118.10C190.15 118.03 189.08 117.24 187.88 116.35 C186.63 115.41 184.81 114 183.81 113.17 L182.02 111.69L182.02 111.69 L181.84 111.69C181.74 111.69 181.67 111.62 181.67 111.55 C181.67 111.48 180.43 110.38 178.91 109.14 L176.16 106.87L176.16 106.87 L176.16 106.73C176.16 106.69 175.71 106.24 175.19 105.80 C174.67 105.31 173.91 104.66 173.50 104.31 C172.81 103.73 172.74 103.76 170.67 105.49 C169.50 106.45 168.57 107.31 168.57 107.38 L168.57 107.55L168.57 107.55 L166.50 108.93L164.43 110.31L164.43 110.31 L164.26 110.31C164.16 110.31 164.09 110.38 164.09 110.48 L164.09 110.66L164.09 110.66 L162.61 111.62C161.81 112.17 159.50 113.62 157.54 114.86 C155.54 116.07 151.58 118.31 148.75 119.79 C145.89 121.27 143.51 122.52 143.48 122.58 L143.41 122.72L143.41 122.72 L143.16 122.72C143.06 122.72 141.54 123.34 139.82 124.14 C138.10 124.93 136.17 125.76 135.55 126.03 L134.44 126.51L134.44 126.51 L134.27 126.51C134.17 126.51 134.10 126.58 134.10 126.69 L134.10 126.86L134.10 126.86 L130.31 128.41L126.51 129.96L126.51 129.96 L124.62 130.65L122.72 131.34L122.72 131.34 L119.17 132.58C117.24 133.27 112.38 134.89 108.42 136.20 C104.42 137.51 101.04 138.65 100.90 138.75 L100.66 138.92L100.66 138.92 L100.25 138.92C100.01 138.92 98.49 139.30 96.87 139.79 C95.25 140.27 93.73 140.75 93.49 140.82 L93.08 140.99L93.08 140.99 L91.59 141.34C90.80 141.54 88.04 142.30 85.49 143.06 C82.91 143.79 78.25 145.03 75.08 145.78 C71.94 146.54 69.26 147.20 69.15 147.20 L68.95 147.20L68.95 147.20 L66.26 147.92C64.77 148.30 63.19 148.72 62.74 148.78 C62.26 148.89 61.60 149.03 61.26 149.09 L60.67 149.27L60.67 149.27 L59.47 149.61L58.26 149.96L58.26 149.96 L57.67 149.96C57.36 149.96 55.33 150.34 53.12 150.85 C50.92 151.33 48.68 151.89 48.16 152.06 L47.23 152.37L47.23 152.37 L46.19 152.37C45.64 152.37 44.13 152.58 42.85 152.82 C41.54 153.09 39.92 153.40 39.20 153.51 L37.92 153.75L37.92 153.75 L32.58 154.61L27.23 155.47L27.23 155.82 26.89 155.92 L26.54 155.82 L25.85 155.82C25.51 155.82 24.99 155.89 24.75 155.95 C24.48 156.06 20.20 156.68 15.24 157.33 C10.24 158.02 5.76 158.54 5.24 158.54 C4.31 158.54 4.31 158.54 5.76 157.26 C6.55 156.54 7.27 155.85 7.38 155.71 L7.58 155.47L7.58 155.47 L7.76 155.47C7.83 155.47 7.93 155.37 7.93 155.30 L7.93 155.13L7.93 155.13 8.10 154.95 L8.27 154.78 L8.45 154.78C8.51 154.78 8.69 154.78 8.79 154.78 L8.96 154.78L8.79 154.61 8.96 154.54 L9.31 154.44 L9.38 154.30C9.41 154.23 11.24 152.71 13.44 150.99 C15.62 149.23 21.10 144.68 25.65 140.86 C30.16 137.03 35.40 132.55 37.26 130.89 L40.68 127.89L40.68 127.89 L40.85 127.89C40.92 127.89 41.02 127.79 41.02 127.72 L41.02 127.55L41.02 127.55 41.19 127.38 L41.37 127.20 L41.54 127.20C41.61 127.20 41.78 127.20 41.88 127.20 L42.06 127.20L42.06 127.20 L42.06 127.03C42.06 126.93 42.13 126.86 42.23 126.86 L42.40 126.86L42.40 126.86 L42.40 126.69C42.40 126.58 42.47 126.51 42.57 126.51 L42.75 126.51L42.75 126.51 L42.75 126.34C42.75 126.24 42.82 126.17 42.92 126.17 L43.09 126.17L42.92 126 43.13 125.86 L43.44 125.83 L43.61 125.58C43.68 125.45 43.78 125.31 43.78 125.24 C43.78 125.17 43.81 125.14 43.92 125.14 C43.99 125.14 45.71 123.72 47.71 122.03 L51.36 118.93L51.36 118.59 51.71 118.45 L52.05 118.59 L52.61 117.90C52.92 117.52 53.23 117.21 53.29 117.21 C53.33 117.21 55.64 115.17 58.40 112.73 L63.43 108.24L63.43 108.24 L63.64 108.07C63.77 107.97 63.95 107.90 64.02 107.90 C64.08 107.90 65.77 106.49 67.74 104.80 L71.36 101.69L71.36 101.69 L71.53 101.69C71.60 101.69 71.70 101.59 71.70 101.52 L71.70 101.35L71.70 101.35 L71.88 101.35C71.94 101.35 72.05 101.25 72.05 101.18 L72.05 101L72.05 101 L72.81 100.32C73.22 99.94 73.60 99.63 73.63 99.63 C73.67 99.63 77.67 96.11 82.53 91.87 L91.35 84.11L91.35 84.11 L91.52 84.11C91.59 84.11 91.70 84.01 91.70 83.94 L91.70 83.77L91.70 83.77 L91.90 83.77C92.04 83.77 92.21 83.67 92.32 83.60 C92.42 83.49 92.52 83.42 92.52 83.42 C92.56 83.42 92.94 83.01 93.35 82.56 L94.11 81.70L94.11 81.70 L94.32 81.53C94.46 81.42 94.59 81.36 94.66 81.36 C94.73 81.36 94.87 81.36 94.97 81.36 C95.04 81.36 95.14 81.29 95.14 81.18 C95.14 81.11 96.08 80.29 97.21 79.29 L99.28 77.56L99.28 77.56 L99.45 77.56C99.52 77.56 99.63 77.46 99.63 77.39 L99.63 77.22L99.63 77.22 L99.69 77.18C99.73 77.18 100.59 76.46 101.59 75.60 L103.38 74.01 107.93 76.74 C110.42 78.22 112.62 79.49 112.76 79.53 L113.07 79.63L113.07 79.63 L113.07 79.80C113.07 79.87 113.14 79.98 113.24 79.98 L113.42 79.98L113.42 79.98 L114.28 80.49L115.14 81.01L115.14 81.01 L119.17 83.56C121.41 84.98 123.27 86.15 123.31 86.15 C123.34 86.15 123.48 86.18 123.58 86.18 L123.76 86.18L123.76 86.18 L123.76 86.35C123.76 86.42 123.83 86.53 123.93 86.53 L124.10 86.53L124.10 86.53 L124.10 86.70C124.10 86.77 124.17 86.87 124.27 86.87 L124.45 86.87L124.45 86.87 L128.76 89.46L133.06 92.04L133.06 92.04 L133.06 92.21C133.06 92.28 133.06 92.46 133.06 92.56 L133.06 92.73L133.06 92.73 L126.17 98.42C122.38 101.52 119.21 104.11 119.10 104.11 C119 104.11 118.93 104.18 118.93 104.28 L118.93 104.45L118.93 104.45 L118.76 104.45C118.65 104.45 118.59 104.52 118.59 104.62 L118.59 104.80L118.59 104.80 L118.41 104.80C118.31 104.80 118.24 104.87 118.24 104.97 L118.24 105.14L118.24 105.14 L114.79 107.90C112.90 109.45 111.35 110.76 111.35 110.83 C111.35 110.93 111.24 111 111.17 111 L111 111L111 111 L110.83 111C110.73 111 110.66 111.07 110.66 111.17 L110.66 111.35L110.66 111.35 L106.35 114.86C103.97 116.79 102.04 118.41 102.04 118.41 C102.04 118.45 101.94 118.55 101.87 118.69 L101.69 118.93L101.69 118.93 L101.45 118.93C101.35 118.93 100.01 119.93 98.45 121.21 C96.90 122.45 95.42 123.72 95.14 124 C94.66 124.45 95.52 124.48 102.21 124.31 C106.38 124.20 109.83 124.14 109.86 124.10 L109.97 124.10L109.97 124.10 L110.21 124.10C110.35 124.10 110.69 124.03 111 123.96 C111.28 123.89 111.52 123.79 111.55 123.79 C111.59 123.76 114.21 121.59 117.34 118.93 L123.07 114.10L123.07 114.10 L123.24 114.10C123.31 114.10 123.41 114 123.41 113.93 C123.41 113.83 123.48 113.76 123.55 113.76 C123.65 113.76 125.83 111.97 128.38 109.80 L133.06 105.83L133.06 105.83 L133.24 105.83C133.31 105.83 133.41 105.73 133.41 105.66 L133.41 105.49L133.41 105.49 L133.65 105.28C133.79 105.14 137.41 102.21 141.68 98.73 C145.92 95.25 151.89 90.39 154.85 87.91 C157.85 85.46 162.78 81.29 165.85 78.67 C168.88 76.08 171.64 73.87 171.98 73.81 C172.40 73.77 174.67 75.43 178.22 78.39 C181.29 80.98 183.88 83.08 183.95 83.08 L184.08 83.08L184.08 83.08 L184.08 83.25C184.08 83.32 184.15 83.42 184.26 83.42 L184.43 83.42L184.43 83.42 L184.43 83.60C184.43 83.67 184.50 83.77 184.60 83.77 L184.77 83.77L184.77 83.77 L184.77 83.94C184.77 84.01 184.84 84.11 184.95 84.11 L185.12 84.11L185.12 84.11 L185.22 84.11C185.29 84.11 185.43 84.18 185.57 84.29 L185.81 84.46L185.81 84.46 L185.81 84.63C185.81 84.70 185.88 84.80 185.98 84.80 L186.15 84.80L186.15 84.80 L186.15 84.98C186.15 85.04 186.22 85.15 186.32 85.15 L186.50 85.15L186.50 85.15 186.67 85.32 L186.84 85.35 187.05 85.49 L187.19 85.84 L193.29 90.80C196.67 93.56 199.42 95.80 199.42 95.80 C199.46 95.80 199.56 95.90 199.70 96.01 L199.94 96.18L199.94 96.18 L199.94 96.35C199.94 96.42 200.01 96.52 200.11 96.52 L200.29 96.52L200.29 96.52 L202.53 98.42C203.77 99.45 204.84 100.32 204.87 100.32 C204.94 100.32 205.08 100.38 205.22 100.49 L205.46 100.66L205.46 100.66 L205.46 100.83C205.46 100.90 205.53 101 205.63 101 L205.80 101L205.80 101 L205.80 101.18C205.80 101.25 205.87 101.35 205.97 101.35 L206.15 101.35L206.15 101.35 206.32 101.52 L206.49 101.56 206.70 101.69 L206.84 102.04 L209.32 104.11C210.70 105.25 211.94 106.24 212.08 106.35 L212.35 106.52L212.35 106.52 L212.35 106.69C212.35 106.76 212.42 106.87 212.52 106.87 L212.70 106.87L212.70 106.87 L213.90 107.90C214.56 108.45 215.18 108.93 215.21 108.93 C215.28 108.93 215.42 109 215.56 109.11 L215.80 109.28L215.80 109.28 L215.80 109.45C215.80 109.52 215.87 109.62 215.97 109.62 L216.14 109.62L216.14 109.62 L216.14 109.80C216.14 109.86 216.21 109.97 216.32 109.97 L216.49 109.97L216.49 109.97 216.66 110.14 L216.83 110.17 217.04 110.31 L217.18 110.66 L223.80 116.31C227.45 119.41 230.48 121.96 230.55 122 C230.62 122 230.79 122.10 230.97 122.21 L231.31 122.38L231.31 122.38 L231.31 122.52C231.31 122.58 231.79 123.03 232.41 123.52 C233.52 124.31 233.72 124.34 241.83 124.52 C249.62 124.69 250.03 124.69 249.24 124.14 C248.75 123.83 247.13 122.52 245.65 121.24 C244.17 119.96 242.89 118.93 242.83 118.93 L242.69 118.93L242.69 118.93 L242.69 118.76C242.69 118.65 242.62 118.59 242.55 118.59 C242.52 118.59 241.79 118.03 241 117.38 L239.58 116.17L239.58 116.17 L238.03 114.97L236.48 113.76L236.48 113.76 L236.48 113.62C236.48 113.55 232.72 110.31 228.14 106.45 C223.56 102.59 217.97 97.90 215.73 96.01 C212.42 93.25 211.73 92.49 212.08 92.15 C212.32 91.90 214.70 90.49 217.35 89.01 C220 87.53 223.59 85.46 225.35 84.46 C227.11 83.42 228.55 82.53 228.55 82.46 L228.55 82.39L228.55 82.39 L229.42 82.04L230.28 81.70L230.28 81.36 230.62 81.22 L230.62 81.36 L230.79 81.36C230.86 81.36 230.97 81.25 230.97 81.18 L230.97 81.01L230.97 81.01 L231.38 80.84C231.62 80.77 231.86 80.70 231.90 80.67 L232 80.67L232 80.67 L232.17 80.67C232.24 80.67 232.35 80.56 232.35 80.49 L232.35 80.32L232.35 80.32 232.52 80.15 L232.69 79.98 L232.86 79.98C232.93 79.98 233.10 79.98 233.21 79.98 L233.38 79.98L233.38 79.98 L233.38 79.80C233.38 79.70 233.45 79.63 233.55 79.63 L233.72 79.63L233.72 79.63 L233.83 79.46C233.90 79.36 234.03 79.29 234.17 79.29 L234.41 79.29L234.24 79.11 234.41 79.05 L234.76 78.94 L236.14 78.08L237.52 77.22L237.52 77.22 L237.69 77.22C237.76 77.22 237.86 77.12 237.86 77.05 L237.86 76.87L237.86 76.87 L239.65 75.84C240.65 75.29 241.79 74.81 242.17 74.81 C242.55 74.81 244.86 76.56 247.41 78.77 C249.89 80.94 252.03 82.73 252.13 82.73 L252.34 82.73L252.34 82.73 L256.89 86.70C259.41 88.90 262.34 91.46 263.44 92.42 C264.54 93.35 265.44 94.21 265.44 94.28 C265.44 94.39 265.54 94.46 265.65 94.46 C265.78 94.46 266.16 94.66 266.51 94.97 L267.16 95.49L267.16 95.49 L273.26 100.63C276.64 103.49 279.40 105.80 279.40 105.80 C279.40 105.80 279.61 105.97 279.85 106.18 L280.26 106.52L280.26 106.52 L280.26 106.69C280.26 106.76 280.33 106.87 280.44 106.87 L280.61 106.87L280.61 106.87 L283.19 109.11C284.64 110.31 285.88 111.35 285.95 111.35 C286.05 111.35 286.12 111.38 286.12 111.48 C286.12 111.55 286.26 111.73 286.47 111.83 L286.81 112.04L286.81 112.04 L286.81 112.21C286.81 112.28 286.88 112.38 286.98 112.38 L287.16 112.38L287.16 112.38 L287.16 112.55C287.16 112.62 287.23 112.73 287.33 112.73 L287.50 112.73L287.50 112.73 L289.47 114.41C290.57 115.35 291.47 116.14 291.47 116.14 C291.50 116.14 291.60 116.24 291.74 116.35 L291.98 116.52L291.98 116.62 292.16 116.69 L292.33 116.72 292.53 116.86 L292.67 117.21 L294.64 118.72C295.74 119.59 296.64 120.28 296.64 120.28 C296.67 120.28 296.78 120.38 296.91 120.48 L297.15 120.65L297.15 120.65 L297.15 120.83C297.15 120.90 297.22 121 297.33 121 L297.50 121L297.50 121 L297.50 121.17C297.50 121.24 297.57 121.34 297.67 121.34 L297.84 121.34L297.84 121.34 L297.84 121.52C297.84 121.59 297.91 121.69 298.02 121.69 L298.19 121.69L298.19 121.69 L299.19 122.45C299.74 122.86 300.22 123.27 300.22 123.31 C300.22 123.34 300.33 123.41 300.43 123.41 L300.60 123.41L300.60 123.41 L300.60 123.58C300.60 123.65 300.67 123.76 300.77 123.76 L300.95 123.76L300.95 123.76 L300.95 123.93C300.95 124 301.02 124.10 301.12 124.10 L301.29 124.10L301.29 124.10 L301.29 124.27C301.29 124.34 301.36 124.45 301.46 124.45 L301.64 124.45L301.64 124.45 L309.05 130.69C313.12 134.10 316.46 136.96 316.46 137.03 C316.46 137.06 316.67 137.20 316.98 137.30 L317.49 137.55L317.49 137.55 L317.49 137.72C317.49 137.79 317.56 137.89 317.67 137.89 L317.84 137.89L317.84 137.89 L318.70 138.58C319.15 138.99 319.56 139.37 319.56 139.44 C319.56 139.51 319.70 139.65 319.91 139.75 L320.25 139.96L320.25 139.96 L320.25 140.13C320.25 140.20 320.32 140.30 320.42 140.30 L320.60 140.30L320.60 140.30 L324.28 143.37C326.32 145.06 328.01 146.47 328.01 146.51 C328.01 146.51 328.18 146.61 328.42 146.68 L328.87 146.85L328.87 146.85 L332.83 150.13C335.01 151.92 336.87 153.40 336.90 153.40 C336.94 153.40 337.18 153.54 337.42 153.75 L337.83 154.09L337.83 154.09 L337.94 154.27C338 154.33 338.11 154.44 338.21 154.44 C338.31 154.44 338.49 154.51 338.62 154.61 L338.87 154.78L338.87 154.78 L338.87 154.95C338.87 155.02 338.94 155.13 339.04 155.13 L339.21 155.13L339.21 155.13 L339.21 155.30C339.21 155.37 339.28 155.47 339.38 155.47 L339.56 155.47L339.56 155.47 L339.56 155.64C339.56 155.71 339.62 155.82 339.73 155.82 L339.90 155.82L339.90 155.82 L340.42 156.16L340.93 156.51L340.93 156.61 341.11 156.68 L341.28 156.71 341.49 156.85 L341.62 157.20 L341.73 157.20C341.80 157.20 342.11 157.47 342.42 157.82 C343 158.47 342.83 158.47 335.52 158.75 C331.39 158.88 325.11 158.88 321.63 158.78 C318.11 158.64 315.11 158.57 314.98 158.57 L314.74 158.57"></path>
  <path d="M160.99 151.68 L160.99 151.47C160.99 151.33 160.68 150.82 160.30 150.30 C159.92 149.78 159.30 148.54 158.92 147.58 C158.54 146.58 158.06 145.06 157.85 144.23 L157.54 142.72L157.54 142.72 L157.54 142.20L157.54 141.68L157.54 141.68 L157.47 141.34C157.44 141.13 157.40 140.23 157.37 139.34 C157.37 138.44 157.47 136.72 157.61 135.55 L157.88 133.41L158.23 133.41 L158.23 133.24C158.23 133.13 158.23 132.96 158.23 132.89 L158.23 132.72L158.13 132.62 158.23 132.48 L158.57 132.38 L158.57 132.20C158.57 132.10 158.57 131.82 158.57 131.58 C158.57 131.34 158.95 130.31 159.44 129.27 C159.92 128.20 160.71 126.86 161.16 126.24 L162.02 125.14L162.02 125.14 162.19 124.96 L162.23 124.79 162.37 124.45 L162.71 124.45 L162.71 124.27C162.71 124.20 163.54 123.58 164.57 122.90 C165.61 122.24 166.54 121.69 166.64 121.69 L166.85 121.69L166.85 121.69 L167.02 121.69C167.09 121.69 167.19 121.59 167.19 121.52 L167.19 121.34L167.19 121.34 L167.95 121.14C168.36 121.03 169.81 120.86 171.16 120.76 C173.05 120.59 173.95 120.69 175.57 121.27 C176.67 121.65 178.12 122.38 178.74 122.86 C179.36 123.34 179.98 123.76 180.09 123.76 L180.29 123.76L180.29 123.76 L180.29 123.93C180.29 124 180.36 124.10 180.46 124.10 L180.64 124.10L180.64 124.10 L182.36 126.55C183.29 127.89 184.08 129.17 184.08 129.34 C184.08 129.51 184.22 129.96 184.43 130.31 L184.77 131L184.77 131 L185.08 132.10C185.26 132.72 185.50 134.06 185.64 135.13 C185.74 136.17 185.91 137.51 185.98 138.13 L186.15 139.27L186.15 139.27 L185.77 141.72C185.57 143.06 185.12 145.06 184.77 146.10 C184.43 147.16 184.05 148.30 183.95 148.65 L183.74 149.27L183.60 149.27 183.57 149.44 L183.57 149.61 183.39 149.82 L183.05 149.96 L181.91 151.71C181.33 152.68 180.53 153.64 180.19 153.85 C179.88 154.06 179.60 154.27 179.60 154.33 L179.60 154.44L179.60 154.44 L179.43 154.44C179.33 154.44 179.26 154.51 179.26 154.61 L179.26 154.78L179.26 154.78 L178.57 155.30L177.88 155.82L177.88 155.82 L175.47 156.51L173.05 157.20L173.05 157.20 L172.71 157.20C172.50 157.20 171.74 157.20 171.02 157.20 C170.29 157.20 168.78 156.89 167.71 156.51 C166.61 156.13 165.12 155.40 164.43 154.89 C163.78 154.40 162.71 153.47 162.09 152.82 L160.99 151.68"></path>
 </g>
 <g fill="#efa332" fill-rule="evenodd">
  <path d="M140.30 85.49 L140.06 84.87C139.92 84.53 139.51 83.11 139.06 81.70 C138.65 80.25 138.20 77.98 138.10 76.60 L137.89 74.12L137.89 74.12 L138.03 72.63C138.10 71.84 138.37 70.05 138.58 68.67 C138.79 67.29 139.17 65.46 139.44 64.60 L139.96 63.08L139.96 63.08 L140.17 62.46C140.30 62.12 141.03 60.67 141.75 59.19 C142.48 57.74 143.68 55.74 144.44 54.81 L145.82 53.09L145.82 53.09 L146.16 52.67C146.34 52.43 146.51 52.19 146.51 52.16 C146.51 52.12 146.61 51.98 146.75 51.88 C146.89 51.78 147.75 51.02 148.65 50.16 L150.30 48.61L150.30 48.61 L150.47 48.61C150.54 48.61 150.65 48.54 150.65 48.47 C150.65 48.40 151.16 47.92 151.85 47.43 L153.06 46.54L153.06 46.54 L153.23 46.54C153.30 46.54 153.40 46.43 153.40 46.37 L153.40 46.19L153.40 46.19 L153.71 46.02C153.89 45.92 154.09 45.85 154.23 45.85 L154.44 45.85L154.44 45.50 L154.61 45.50C154.68 45.50 154.85 45.50 154.95 45.50 L155.13 45.50L154.95 45.33 155.13 45.26 L155.47 45.16 L157.02 44.30L158.57 43.44L158.57 43.44 L159.16 43.23C159.50 43.13 161.02 42.64 162.57 42.19 C164.09 41.78 166.85 41.23 168.67 41.02 C170.50 40.82 172.05 40.68 172.16 40.68 L172.36 40.68L172.36 40.68 L174.67 40.85C175.95 40.99 177.98 41.30 179.19 41.54 C180.36 41.82 181.43 42.06 181.50 42.06 L181.67 42.06L181.67 42.06 L182.26 42.26C182.60 42.37 184.02 42.92 185.43 43.47 C186.84 44.02 188.88 45.02 189.94 45.68 C191.01 46.30 192.94 47.71 194.25 48.74 C195.56 49.78 197.70 51.92 198.98 53.50 C200.36 55.19 202.01 57.74 203.04 59.81 C203.97 61.71 205.08 64.50 205.49 66.02 C206.11 68.22 206.28 69.67 206.28 73.43 C206.28 76.87 206.11 78.67 205.63 80.49 C205.28 81.80 204.70 83.56 204.35 84.39 C203.91 85.46 203.60 85.80 203.25 85.60 C202.98 85.42 200.39 83.35 197.49 81.01 C194.63 78.63 189.29 74.22 185.64 71.19 C181.98 68.15 177.57 64.43 175.81 62.95 C174.09 61.46 172.43 60.33 172.19 60.43 C171.95 60.50 168.36 63.43 164.23 66.91 C160.06 70.39 155.54 74.15 154.16 75.25 C152.78 76.39 151.58 77.43 151.47 77.60 L151.33 77.91L151.33 77.91 L149.78 79.11L148.23 80.32L148.23 80.32 L148.06 80.32C147.96 80.32 147.89 80.39 147.89 80.49 L147.89 80.67L147.89 80.67 L145.99 82.04L144.10 83.42L144.10 83.42 L142.72 84.63L141.34 85.84L141.34 85.84 L141.17 85.84C141.06 85.84 140.89 85.84 140.82 85.84 L140.65 85.84L140.65 85.84 L140.48 85.84C140.37 85.84 140.30 85.73 140.30 85.66 L140.30 85.49"></path>
  <path d="M168.57 28.61 L168.57 23.44C168.57 20.58 168.57 18.17 168.57 18.10 C168.57 17.99 168.57 15.82 168.57 13.27 L168.57 8.62L168.57 8.62 L168.57 7.41C168.57 6.55 168.81 6.03 169.61 5.34 C170.40 4.69 171.05 4.45 172.12 4.45 C173.33 4.48 173.78 4.65 174.60 5.52 L175.64 6.58 175.53 15.27 C175.50 20.03 175.47 24.06 175.47 24.20 L175.47 24.48L175.47 24.48 L175.47 24.65C175.47 24.72 175.47 25.85 175.47 27.16 C175.47 28.44 175.36 29.61 175.29 29.75 L175.12 29.99L175.12 29.99 L175.02 29.99C174.98 29.99 174.57 30.30 174.12 30.68 C173.64 31.09 172.78 31.37 171.98 31.37 C171.09 31.37 170.36 31.09 169.61 30.47 C169.02 29.96 168.57 29.34 168.57 29.09 L168.57 28.61M170.81 7.24 C170.92 7.03 170.71 6.89 170.29 6.89 C169.47 6.89 169.67 6 170.71 5.45 C171.23 5.17 171.54 5.24 172.02 5.69 C172.81 6.41 172.88 6.89 172.19 6.89 C171.88 6.89 171.67 7.03 171.67 7.24 C171.67 7.41 171.43 7.58 171.16 7.58 C170.85 7.58 170.71 7.41 170.81 7.24 "></path>
 </g>
 <g fill="#d28d2c" fill-rule="evenodd">
  <path d="M224.07 44.47 L224.83 43.99C225.28 43.71 226.21 43.16 226.90 42.78 L228.21 42.06L228.21 42.06 L229.07 42.06C229.55 42.06 230.24 42.19 230.62 42.40 C231 42.57 231.52 43.19 231.79 43.75 C232.10 44.30 232.35 45.09 232.35 45.47 C232.35 45.85 232.35 46.26 232.35 46.37 L232.35 46.54L232.35 46.54 L232.35 46.99C232.35 47.26 231.97 47.85 231.52 48.30 C231.04 48.74 228.55 50.33 226 51.81 C223.42 53.29 221.31 54.57 221.31 54.64 L221.31 54.81L221.31 54.81 L221.07 54.81C220.94 54.81 219.59 55.60 218.07 56.57 C216.52 57.53 214.73 58.40 214.04 58.50 C213.25 58.60 212.39 58.43 211.66 58.09 C211.01 57.74 210.35 57.02 210.04 56.29 C209.77 55.64 209.66 54.74 209.77 54.33 C209.90 53.92 210.25 53.29 210.56 52.98 C210.83 52.64 213.04 51.16 215.42 49.74 C217.80 48.30 220.73 46.50 221.90 45.78 L224.07 44.47"></path>
  <path d="M204.77 30.34 L204.60 30.34C204.49 30.34 204.42 30.40 204.42 30.51 L204.42 30.68L204.42 30.68 L204.25 30.68C204.15 30.68 204.08 30.75 204.08 30.85 L204.08 31.03L204.08 31.03 L203.91 31.37L203.73 31.71L203.73 31.71 L203.56 31.71C203.46 31.71 203.39 31.78 203.39 31.89 L203.39 32.06L203.39 32.06 L203.22 32.40L203.04 32.75L203.04 32.75 L202.70 33.27L202.35 33.78L202.35 33.78 L200.84 35.85C200.01 36.99 198.98 38.30 198.56 38.75 C198.15 39.20 197.39 39.64 196.87 39.75 C196.39 39.82 195.46 39.71 194.87 39.47 C194.29 39.20 193.56 38.64 193.25 38.20 C192.94 37.78 192.70 36.89 192.70 36.27 C192.70 35.37 193.91 33.30 198.39 26.54 C201.49 21.79 204.35 17.75 204.73 17.58 C205.11 17.37 205.97 17.24 206.66 17.24 C207.56 17.24 208.18 17.48 208.90 18.20 C209.46 18.75 210.01 19.61 210.11 20.13 C210.25 20.65 210.18 21.48 209.94 21.99 C209.70 22.48 208.46 24.58 207.15 26.61 L204.77 30.34"></path>
  <path d="M143.75 36.89 L143.75 36.71C143.75 36.61 143.65 36.54 143.58 36.54 L143.41 36.54L143.41 36.54 L143.23 36.20L143.06 35.85L143.06 35.85 L143.06 35.68C143.06 35.58 142.96 35.51 142.89 35.51 L142.72 35.51L142.72 35.51 L142.72 35.33C142.72 35.23 142.72 35.06 142.72 34.99 L142.72 34.82L142.72 34.82 L142.54 34.82C142.44 34.82 142.37 34.71 142.37 34.65 L142.37 34.47L142.20 34.65 142.03 34.47 L142.03 34.13 L142.03 33.96C142.03 33.85 141.96 33.78 141.89 33.78 C141.82 33.78 141.68 33.68 141.54 33.61 L141.34 33.44L141.34 33.44 L140.99 32.92L140.65 32.40L140.65 32.40 L140.48 31.96C140.41 31.71 140.34 31.47 140.30 31.44 L140.30 31.37L139.96 31.37 L139.96 31.20C139.96 31.09 139.96 30.92 139.96 30.85 L139.96 30.68L139.96 30.68 L139.79 30.68C139.68 30.68 139.61 30.58 139.61 30.51 L139.61 30.34L139.44 30.51 139.27 30.34 L139.27 29.99 L139.10 29.75C138.99 29.61 138.89 29.51 138.89 29.47 C138.89 29.47 138.20 28.58 137.34 27.47 L135.82 25.51L135.82 25.51 L135.82 25.34C135.82 25.23 135.79 25.10 135.75 25.06 C135.75 25.03 135.20 24.23 134.55 23.34 L133.41 21.72L133.41 21.72 L133.41 21.20C133.41 20.89 133.41 20.58 133.41 20.51 C133.41 20.41 133.41 20.24 133.41 20.17 L133.41 19.99L133.41 19.99 L133.58 19.48C133.68 19.20 134.24 18.58 134.82 18.10 C135.55 17.48 136.27 17.24 137.24 17.24 C137.99 17.24 138.89 17.37 139.24 17.55 C139.58 17.75 141.41 20.24 143.27 23.06 C145.13 25.92 146.72 28.23 146.75 28.23 L146.85 28.27L146.85 28.27 L147.54 29.30L148.23 30.34L148.23 30.34 L148.23 30.44C148.23 30.51 148.30 30.65 148.40 30.78 L148.58 31.03L148.58 31.03 L148.58 31.09C148.58 31.13 149.13 31.89 149.78 32.75 C150.54 33.75 150.96 34.68 150.96 35.40 C150.96 35.99 150.78 36.89 150.58 37.40 C150.34 37.89 149.71 38.51 149.20 38.78 C148.68 39.06 147.72 39.30 147.06 39.30 C146.13 39.30 145.65 39.02 144.89 38.09 C144.34 37.44 143.85 36.92 143.82 36.89 L143.75 36.89"></path>
 </g>
 <g fill="#e49b30" fill-rule="evenodd">
  <path d="M127.20 56.88 L126.76 56.57C126.51 56.40 125.41 55.67 124.27 55.02 C123.14 54.33 122.07 53.78 121.93 53.78 L121.69 53.78L121.69 53.78 L121.59 53.64C121.55 53.57 119.65 52.47 117.38 51.19 C115.10 49.92 112.86 48.50 112.45 48.05 L111.69 47.23L111.69 47.23 L111.62 47.12C111.59 47.09 111.48 46.37 111.42 45.57 C111.31 44.30 111.45 43.95 112.31 43.06 C113.07 42.33 113.69 42.06 114.52 42.06 C115.17 42.06 115.79 42.13 115.93 42.23 L116.17 42.40L116.17 42.40 L118.24 43.44L120.31 44.47L120.31 44.57 120.48 44.64 L120.65 44.68 121 44.81 L121 45.16 L121.17 45.16C121.24 45.16 121.41 45.16 121.52 45.16 L121.69 45.16L121.69 45.16 L122.21 45.50L122.72 45.85L122.72 45.85 L123.07 46.02L123.41 46.19L123.41 46.19 L123.76 46.37L124.10 46.54L124.10 46.54 L124.45 46.71L124.79 46.88L124.79 46.88 L124.79 47.06C124.79 47.12 124.86 47.23 124.96 47.23 L125.14 47.23L125.14 47.23 L125.48 47.40L125.83 47.57L125.83 47.57 L127.96 48.81C129.13 49.50 130.75 50.43 131.51 50.85 C132.27 51.30 133.06 51.81 133.31 52.02 L133.75 52.40L133.75 52.50 133.93 52.57 L134.10 52.74 L134.10 52.92C134.10 52.98 134.10 53.16 134.10 53.26 L134.10 53.43L134.27 53.26 134.31 53.43 L134.44 53.78 L134.44 53.95C134.44 54.02 134.44 54.19 134.44 54.29 C134.44 54.36 134.44 54.67 134.44 54.98 L134.44 55.50L134.44 55.50 L133.75 56.50C133.37 57.05 132.79 57.67 132.41 57.88 C132.03 58.09 131.41 58.26 131.03 58.26 C130.65 58.26 129.69 57.95 128.86 57.57 C128.03 57.19 127.31 56.88 127.27 56.88 L127.20 56.88"></path>
  <path d="M170.81 7.24 C170.92 7.03 170.71 6.89 170.29 6.89 C169.47 6.89 169.67 6 170.71 5.45 C171.23 5.17 171.54 5.24 172.02 5.69 C172.81 6.41 172.88 6.89 172.19 6.89 C171.88 6.89 171.67 7.03 171.67 7.24 C171.67 7.41 171.43 7.58 171.16 7.58 C170.85 7.58 170.71 7.41 170.81 7.24 "></path>
 </g>
</svg>