<svg xmlns="http://www.w3.org/2000/svg" viewBox="11.56 24.39 101.9 101.98">
 <g fill="#032696">
  <path class="cls-4" d="M58.1 104.37v22h10.29v-3.99h-6.1v-18.01zm14.02 0h4.15v22h-4.15zm16.05 9.22h-4v-5.05h4c1.39 0 2.52 1.13 2.52 2.53s-1.13 2.53-2.52 2.53m0-9.21h-4l-4.15-.01v21.99h4.15v-8.63h4c3.68 0 6.67-2.99 6.67-6.67s-2.99-6.67-6.67-6.67"/>
  <path class="cls-4" d="m45.96 110.13 2.93 7.55h-5.88zm-34.4-85.74v97.4h25.5l-1.74 4.51h4.35l1.78-4.51h8.99l1.72 4.51h4.35l-8.46-22h-4.24l-5.17 13.41h-23V28.47h93.74v85.04h-7.58v-9.22h-4.15v22h4.15v-8.63h7.49v8.63h4.17V24.39z"/>
 </g>
</svg>
